# This file uses centimeters as units for non-parametric coordinates.

g default
v 12.878795 0.000000 -9.356977
v 4.919259 0.000000 -15.139907
v -4.919269 0.000000 -15.139907
v -12.878796 0.000000 -9.356977
v -15.919057 0.000000 0.000001
v -12.878796 0.000000 9.356976
v -4.919259 0.000000 15.139903
v 4.919268 0.000000 15.139903
v 12.878795 0.000000 9.356976
v 15.919054 0.000000 0.000000
v 14.862067 60.105450 -10.797925
v 5.676794 60.105450 -17.471428
v -5.676795 60.105450 -17.471422
v -14.862067 60.105450 -10.797924
v -18.370529 60.105450 -0.000001
v -14.862072 60.105450 10.797914
v -5.676796 60.105450 17.471420
v 5.676795 60.105450 17.471420
v 14.862072 60.105450 10.797914
v 18.370529 60.105450 -0.000002
v -0.000001 60.105450 -18.356737
v -0.000006 0.000000 -15.907078
v -10.789804 60.105450 -14.850906
v -9.349965 0.000000 -12.869096
v -17.458281 60.105450 -5.672539
v -15.128551 0.000000 -4.915556
v -17.458282 60.105450 5.672533
v -15.128551 0.000000 4.915557
v -10.789807 60.105450 14.850900
v -9.349959 0.000000 12.869093
v -0.000001 60.105450 18.356733
v 0.000005 0.000000 15.907074
v 10.789806 60.105450 14.850900
v 9.349963 0.000000 12.869093
v 17.458282 60.105450 5.672532
v 15.128549 0.000000 4.915557
v 17.458281 60.105450 -5.672540
v 15.128549 0.000000 -4.915556
v 10.789804 60.105450 -14.850909
v 9.349958 0.000000 -12.869096
vt 0.005240 0.983460
vt 0.005240 0.886861
vt 0.005240 0.790264
vt 0.005240 0.693666
vt 0.005240 0.597067
vt 0.005240 0.500470
vt 0.005240 0.403872
vt 0.005240 0.307274
vt 0.005240 0.210676
vt 0.005240 0.114078
vt 0.005240 0.017480
vt 0.988229 0.983460
vt 0.988229 0.886862
vt 0.988229 0.790264
vt 0.988229 0.693666
vt 0.988229 0.597068
vt 0.988229 0.500470
vt 0.988229 0.403872
vt 0.988229 0.307274
vt 0.988229 0.210676
vt 0.988229 0.114078
vt 0.988229 0.017480
vt 0.988229 0.838563
vt 0.005240 0.838562
vt 0.988229 0.741965
vt 0.005240 0.741965
vt 0.988229 0.645367
vt 0.005240 0.645367
vt 0.988229 0.548769
vt 0.005240 0.548769
vt 0.988229 0.452171
vt 0.005240 0.452171
vt 0.988229 0.355573
vt 0.005240 0.355573
vt 0.988229 0.258975
vt 0.005240 0.258975
vt 0.988229 0.162377
vt 0.005240 0.162377
vt 0.988229 0.065779
vt 0.005240 0.065779
vt 0.988229 0.935161
vt 0.005240 0.935161
vn 0.587298 -0.040722 -0.808346
vn 0.455735 -0.040236 -0.889206
vn 0.455735 -0.040236 -0.889206
vn 0.587298 -0.040722 -0.808346
vn -0.000000 -0.040722 -0.999171
vn -0.153966 -0.040237 -0.987257
vn -0.153966 -0.040237 -0.987257
vn -0.000000 -0.040722 -0.999171
vn -0.587298 -0.040722 -0.808346
vn -0.704856 -0.040236 -0.708209
vn -0.704856 -0.040236 -0.708209
vn -0.587298 -0.040722 -0.808346
vn -0.950268 -0.040722 -0.308761
vn -0.986515 -0.040236 -0.158649
vn -0.986515 -0.040236 -0.158649
vn -0.950268 -0.040722 -0.308761
vn -0.950268 -0.040722 0.308761
vn -0.891359 -0.040236 0.451509
vn -0.891359 -0.040236 0.451509
vn -0.950268 -0.040722 0.308761
vn -0.587298 -0.040722 0.808346
vn -0.455735 -0.040236 0.889206
vn -0.455735 -0.040236 0.889206
vn -0.587298 -0.040722 0.808346
vn 0.000000 -0.040722 0.999171
vn 0.153965 -0.040237 0.987257
vn 0.153965 -0.040237 0.987257
vn -0.000000 -0.040722 0.999170
vn 0.587298 -0.040722 0.808346
vn 0.704856 -0.040236 0.708209
vn 0.704856 -0.040236 0.708209
vn 0.587298 -0.040722 0.808346
vn 0.950268 -0.040722 0.308761
vn 0.986515 -0.040236 0.158649
vn 0.986515 -0.040236 0.158649
vn 0.950268 -0.040722 0.308761
vn 0.950268 -0.040722 -0.308761
vn 0.891359 -0.040236 -0.451509
vn 0.891359 -0.040236 -0.451509
vn 0.950268 -0.040722 -0.308761
vn 0.153965 -0.040237 -0.987257
vn 0.153965 -0.040237 -0.987257
vn -0.455734 -0.040236 -0.889206
vn -0.455734 -0.040236 -0.889206
vn -0.891359 -0.040236 -0.451509
vn -0.891359 -0.040236 -0.451509
vn -0.986515 -0.040236 0.158649
vn -0.986515 -0.040236 0.158649
vn -0.704855 -0.040236 0.708209
vn -0.704855 -0.040236 0.708209
vn -0.153965 -0.040237 0.987257
vn -0.153965 -0.040237 0.987257
vn 0.455735 -0.040236 0.889206
vn 0.455735 -0.040236 0.889206
vn 0.891359 -0.040236 0.451509
vn 0.891359 -0.040236 0.451509
vn 0.986515 -0.040236 -0.158649
vn 0.986515 -0.040236 -0.158649
vn 0.704855 -0.040236 -0.708209
vn 0.704855 -0.040236 -0.708209
g bigcone_bottomLess
f 40/42/1 2/2/2 12/13/3 39/41/4
f 22/24/5 3/3/6 13/14/7 21/23/8
f 24/26/9 4/4/10 14/15/11 23/25/12
f 26/28/13 5/5/14 15/16/15 25/27/16
f 28/30/17 6/6/18 16/17/19 27/29/20
f 30/32/21 7/7/22 17/18/23 29/31/24
f 32/34/25 8/8/26 18/19/27 31/33/28
f 34/36/29 9/9/30 19/20/31 33/35/32
f 36/38/33 10/10/34 20/21/35 35/37/36
f 38/40/37 1/11/38 11/22/39 37/39/40
f 2/2/41 22/24/5 21/23/8 12/13/42
f 3/3/43 24/26/9 23/25/12 13/14/44
f 4/4/45 26/28/13 25/27/16 14/15/46
f 5/5/47 28/30/17 27/29/20 15/16/48
f 6/6/49 30/32/21 29/31/24 16/17/50
f 7/7/51 32/34/25 31/33/28 17/18/52
f 8/8/53 34/36/29 33/35/32 18/19/54
f 9/9/55 36/38/33 35/37/36 19/20/56
f 10/10/57 38/40/37 37/39/40 20/21/58
f 1/1/59 40/42/1 39/41/4 11/12/60
